<mxfile host="Electron" agent="Mozilla/5.0 (Windows NT 10.0; Win64; x64) AppleWebKit/537.36 (KHTML, like Gecko) draw.io/24.7.17 Chrome/128.0.6613.36 Electron/32.0.1 Safari/537.36" version="24.7.17">
  <diagram name="Halaman-1" id="5P2ej_p6L-BX9d6_axQh">
    <mxGraphModel dx="1468" dy="2929" grid="1" gridSize="10" guides="1" tooltips="1" connect="1" arrows="1" fold="1" page="1" pageScale="1" pageWidth="827" pageHeight="1169" math="0" shadow="0">
      <root>
        <mxCell id="0" />
        <mxCell id="1" parent="0" />
        <mxCell id="To99Qyr-eG0sXd5TeUce-3" value="" style="edgeStyle=orthogonalEdgeStyle;rounded=0;orthogonalLoop=1;jettySize=auto;html=1;" parent="1" source="To99Qyr-eG0sXd5TeUce-1" target="To99Qyr-eG0sXd5TeUce-2" edge="1">
          <mxGeometry relative="1" as="geometry" />
        </mxCell>
        <mxCell id="To99Qyr-eG0sXd5TeUce-1" value="Mulai" style="ellipse;whiteSpace=wrap;html=1;" parent="1" vertex="1">
          <mxGeometry x="370" y="-1220" width="120" height="80" as="geometry" />
        </mxCell>
        <mxCell id="To99Qyr-eG0sXd5TeUce-5" value="" style="edgeStyle=orthogonalEdgeStyle;rounded=0;orthogonalLoop=1;jettySize=auto;html=1;" parent="1" source="To99Qyr-eG0sXd5TeUce-2" target="To99Qyr-eG0sXd5TeUce-4" edge="1">
          <mxGeometry relative="1" as="geometry" />
        </mxCell>
        <mxCell id="To99Qyr-eG0sXd5TeUce-2" value="Input" style="shape=parallelogram;perimeter=parallelogramPerimeter;whiteSpace=wrap;html=1;fixedSize=1;" parent="1" vertex="1">
          <mxGeometry x="370" y="-970" width="120" height="60" as="geometry" />
        </mxCell>
        <mxCell id="To99Qyr-eG0sXd5TeUce-7" value="" style="edgeStyle=orthogonalEdgeStyle;rounded=0;orthogonalLoop=1;jettySize=auto;html=1;" parent="1" source="To99Qyr-eG0sXd5TeUce-4" target="To99Qyr-eG0sXd5TeUce-6" edge="1">
          <mxGeometry relative="1" as="geometry" />
        </mxCell>
        <mxCell id="To99Qyr-eG0sXd5TeUce-9" value="" style="edgeStyle=orthogonalEdgeStyle;rounded=0;orthogonalLoop=1;jettySize=auto;html=1;" parent="1" source="To99Qyr-eG0sXd5TeUce-4" target="To99Qyr-eG0sXd5TeUce-8" edge="1">
          <mxGeometry relative="1" as="geometry" />
        </mxCell>
        <mxCell id="To99Qyr-eG0sXd5TeUce-4" value="menu&amp;nbsp;&lt;div&gt;1/2&lt;/div&gt;" style="rhombus;whiteSpace=wrap;html=1;" parent="1" vertex="1">
          <mxGeometry x="390" y="-840" width="80" height="80" as="geometry" />
        </mxCell>
        <mxCell id="To99Qyr-eG0sXd5TeUce-13" value="" style="edgeStyle=orthogonalEdgeStyle;rounded=0;orthogonalLoop=1;jettySize=auto;html=1;" parent="1" source="To99Qyr-eG0sXd5TeUce-6" target="To99Qyr-eG0sXd5TeUce-12" edge="1">
          <mxGeometry relative="1" as="geometry" />
        </mxCell>
        <mxCell id="To99Qyr-eG0sXd5TeUce-6" value="Registrasi" style="whiteSpace=wrap;html=1;" parent="1" vertex="1">
          <mxGeometry x="70" y="-830" width="120" height="60" as="geometry" />
        </mxCell>
        <mxCell id="To99Qyr-eG0sXd5TeUce-33" value="" style="edgeStyle=orthogonalEdgeStyle;rounded=0;orthogonalLoop=1;jettySize=auto;html=1;" parent="1" source="To99Qyr-eG0sXd5TeUce-8" target="To99Qyr-eG0sXd5TeUce-32" edge="1">
          <mxGeometry relative="1" as="geometry" />
        </mxCell>
        <mxCell id="To99Qyr-eG0sXd5TeUce-8" value="Login" style="whiteSpace=wrap;html=1;" parent="1" vertex="1">
          <mxGeometry x="690" y="-830" width="120" height="60" as="geometry" />
        </mxCell>
        <mxCell id="To99Qyr-eG0sXd5TeUce-15" value="" style="edgeStyle=orthogonalEdgeStyle;rounded=0;orthogonalLoop=1;jettySize=auto;html=1;" parent="1" source="To99Qyr-eG0sXd5TeUce-12" target="To99Qyr-eG0sXd5TeUce-14" edge="1">
          <mxGeometry relative="1" as="geometry" />
        </mxCell>
        <mxCell id="To99Qyr-eG0sXd5TeUce-12" value="Input Username" style="shape=parallelogram;perimeter=parallelogramPerimeter;whiteSpace=wrap;html=1;fixedSize=1;" parent="1" vertex="1">
          <mxGeometry x="70" y="-690" width="120" height="60" as="geometry" />
        </mxCell>
        <mxCell id="To99Qyr-eG0sXd5TeUce-38" value="" style="edgeStyle=orthogonalEdgeStyle;rounded=0;orthogonalLoop=1;jettySize=auto;html=1;" parent="1" source="To99Qyr-eG0sXd5TeUce-14" target="To99Qyr-eG0sXd5TeUce-26" edge="1">
          <mxGeometry relative="1" as="geometry" />
        </mxCell>
        <mxCell id="To99Qyr-eG0sXd5TeUce-14" value="Input Password" style="shape=parallelogram;perimeter=parallelogramPerimeter;whiteSpace=wrap;html=1;fixedSize=1;" parent="1" vertex="1">
          <mxGeometry x="70" y="-550" width="120" height="60" as="geometry" />
        </mxCell>
        <mxCell id="To99Qyr-eG0sXd5TeUce-25" value="List film dan&amp;nbsp;&lt;div&gt;durasi&lt;/div&gt;" style="rounded=0;whiteSpace=wrap;html=1;" parent="1" vertex="1">
          <mxGeometry x="370" y="-1090" width="120" height="60" as="geometry" />
        </mxCell>
        <mxCell id="To99Qyr-eG0sXd5TeUce-29" value="" style="edgeStyle=orthogonalEdgeStyle;rounded=0;orthogonalLoop=1;jettySize=auto;html=1;" parent="1" source="To99Qyr-eG0sXd5TeUce-26" target="To99Qyr-eG0sXd5TeUce-28" edge="1">
          <mxGeometry relative="1" as="geometry" />
        </mxCell>
        <mxCell id="To99Qyr-eG0sXd5TeUce-31" value="" style="edgeStyle=orthogonalEdgeStyle;rounded=0;orthogonalLoop=1;jettySize=auto;html=1;" parent="1" source="To99Qyr-eG0sXd5TeUce-26" target="To99Qyr-eG0sXd5TeUce-30" edge="1">
          <mxGeometry relative="1" as="geometry" />
        </mxCell>
        <mxCell id="To99Qyr-eG0sXd5TeUce-26" value="Username for user&lt;div&gt;in users&lt;/div&gt;" style="rhombus;whiteSpace=wrap;html=1;" parent="1" vertex="1">
          <mxGeometry x="72.5" y="-417" width="115" height="110" as="geometry" />
        </mxCell>
        <mxCell id="To99Qyr-eG0sXd5TeUce-27" value="ya&lt;div&gt;&lt;br&gt;&lt;/div&gt;" style="text;html=1;align=center;verticalAlign=middle;resizable=0;points=[];autosize=1;strokeColor=none;fillColor=none;" parent="1" vertex="1">
          <mxGeometry x="180" y="-390" width="40" height="40" as="geometry" />
        </mxCell>
        <mxCell id="To99Qyr-eG0sXd5TeUce-48" value="" style="edgeStyle=orthogonalEdgeStyle;rounded=0;orthogonalLoop=1;jettySize=auto;html=1;" parent="1" source="To99Qyr-eG0sXd5TeUce-28" target="To99Qyr-eG0sXd5TeUce-47" edge="1">
          <mxGeometry relative="1" as="geometry" />
        </mxCell>
        <mxCell id="To99Qyr-eG0sXd5TeUce-28" value="Registrasi Berhasil&amp;nbsp;&lt;div&gt;Silahkan Login&lt;/div&gt;" style="shape=parallelogram;perimeter=parallelogramPerimeter;whiteSpace=wrap;html=1;fixedSize=1;" parent="1" vertex="1">
          <mxGeometry x="280" y="-270" width="140" height="70" as="geometry" />
        </mxCell>
        <mxCell id="To99Qyr-eG0sXd5TeUce-52" value="" style="edgeStyle=orthogonalEdgeStyle;rounded=0;orthogonalLoop=1;jettySize=auto;html=1;" parent="1" source="To99Qyr-eG0sXd5TeUce-30" target="To99Qyr-eG0sXd5TeUce-51" edge="1">
          <mxGeometry relative="1" as="geometry" />
        </mxCell>
        <mxCell id="To99Qyr-eG0sXd5TeUce-30" value="Registrasi Berhasil&amp;nbsp;&lt;div&gt;Silahkan Login&lt;/div&gt;" style="shape=parallelogram;perimeter=parallelogramPerimeter;whiteSpace=wrap;html=1;fixedSize=1;" parent="1" vertex="1">
          <mxGeometry x="-160" y="-270" width="140" height="70" as="geometry" />
        </mxCell>
        <mxCell id="To99Qyr-eG0sXd5TeUce-35" value="" style="edgeStyle=orthogonalEdgeStyle;rounded=0;orthogonalLoop=1;jettySize=auto;html=1;" parent="1" source="To99Qyr-eG0sXd5TeUce-32" target="To99Qyr-eG0sXd5TeUce-34" edge="1">
          <mxGeometry relative="1" as="geometry" />
        </mxCell>
        <mxCell id="To99Qyr-eG0sXd5TeUce-32" value="Masukkan&amp;nbsp;&lt;div&gt;Username&lt;/div&gt;&lt;div&gt;(pegawai)&lt;/div&gt;" style="shape=parallelogram;perimeter=parallelogramPerimeter;whiteSpace=wrap;html=1;fixedSize=1;" parent="1" vertex="1">
          <mxGeometry x="687.5" y="-690" width="125" height="65" as="geometry" />
        </mxCell>
        <mxCell id="To99Qyr-eG0sXd5TeUce-37" value="" style="edgeStyle=orthogonalEdgeStyle;rounded=0;orthogonalLoop=1;jettySize=auto;html=1;" parent="1" source="To99Qyr-eG0sXd5TeUce-34" target="To99Qyr-eG0sXd5TeUce-36" edge="1">
          <mxGeometry relative="1" as="geometry" />
        </mxCell>
        <mxCell id="To99Qyr-eG0sXd5TeUce-34" value="Masukkan&lt;div&gt;Password&lt;/div&gt;&lt;div&gt;(ini pegawai)&lt;/div&gt;" style="shape=parallelogram;perimeter=parallelogramPerimeter;whiteSpace=wrap;html=1;fixedSize=1;" parent="1" vertex="1">
          <mxGeometry x="690" y="-550" width="120" height="60" as="geometry" />
        </mxCell>
        <mxCell id="To99Qyr-eG0sXd5TeUce-40" value="" style="edgeStyle=orthogonalEdgeStyle;rounded=0;orthogonalLoop=1;jettySize=auto;html=1;" parent="1" source="To99Qyr-eG0sXd5TeUce-36" target="To99Qyr-eG0sXd5TeUce-39" edge="1">
          <mxGeometry relative="1" as="geometry" />
        </mxCell>
        <mxCell id="To99Qyr-eG0sXd5TeUce-42" value="" style="edgeStyle=orthogonalEdgeStyle;rounded=0;orthogonalLoop=1;jettySize=auto;html=1;" parent="1" source="To99Qyr-eG0sXd5TeUce-36" target="To99Qyr-eG0sXd5TeUce-41" edge="1">
          <mxGeometry relative="1" as="geometry" />
        </mxCell>
        <mxCell id="To99Qyr-eG0sXd5TeUce-36" value="u for u in&lt;div&gt;users&lt;/div&gt;" style="rhombus;whiteSpace=wrap;html=1;" parent="1" vertex="1">
          <mxGeometry x="700" y="-417" width="100" height="110" as="geometry" />
        </mxCell>
        <mxCell id="To99Qyr-eG0sXd5TeUce-46" value="" style="edgeStyle=orthogonalEdgeStyle;rounded=0;orthogonalLoop=1;jettySize=auto;html=1;" parent="1" source="To99Qyr-eG0sXd5TeUce-39" target="To99Qyr-eG0sXd5TeUce-45" edge="1">
          <mxGeometry relative="1" as="geometry" />
        </mxCell>
        <mxCell id="To99Qyr-eG0sXd5TeUce-39" value="Selamat datang pegawai" style="shape=parallelogram;perimeter=parallelogramPerimeter;whiteSpace=wrap;html=1;fixedSize=1;" parent="1" vertex="1">
          <mxGeometry x="860" y="-260" width="120" height="60" as="geometry" />
        </mxCell>
        <mxCell id="To99Qyr-eG0sXd5TeUce-44" value="" style="edgeStyle=orthogonalEdgeStyle;rounded=0;orthogonalLoop=1;jettySize=auto;html=1;" parent="1" source="To99Qyr-eG0sXd5TeUce-41" target="To99Qyr-eG0sXd5TeUce-43" edge="1">
          <mxGeometry relative="1" as="geometry" />
        </mxCell>
        <mxCell id="To99Qyr-eG0sXd5TeUce-41" value="Username&lt;div&gt;atau password&lt;/div&gt;&lt;div&gt;salah&lt;/div&gt;" style="shape=parallelogram;perimeter=parallelogramPerimeter;whiteSpace=wrap;html=1;fixedSize=1;" parent="1" vertex="1">
          <mxGeometry x="500" y="-260" width="120" height="60" as="geometry" />
        </mxCell>
        <mxCell id="To99Qyr-eG0sXd5TeUce-55" style="edgeStyle=orthogonalEdgeStyle;rounded=0;orthogonalLoop=1;jettySize=auto;html=1;exitX=0.5;exitY=1;exitDx=0;exitDy=0;" parent="1" edge="1">
          <mxGeometry relative="1" as="geometry">
            <mxPoint x="580" y="-95" as="sourcePoint" />
            <mxPoint x="810" y="-660" as="targetPoint" />
            <Array as="points">
              <mxPoint x="580" y="-43" />
              <mxPoint x="1080" y="-43" />
              <mxPoint x="1080" y="-660" />
            </Array>
          </mxGeometry>
        </mxCell>
        <mxCell id="To99Qyr-eG0sXd5TeUce-43" value="Enter untuk&amp;nbsp;&lt;div&gt;kembali ke menu&lt;/div&gt;" style="shape=parallelogram;perimeter=parallelogramPerimeter;whiteSpace=wrap;html=1;fixedSize=1;" parent="1" vertex="1">
          <mxGeometry x="500" y="-120" width="120" height="60" as="geometry" />
        </mxCell>
        <mxCell id="To99Qyr-eG0sXd5TeUce-57" value="" style="edgeStyle=orthogonalEdgeStyle;rounded=0;orthogonalLoop=1;jettySize=auto;html=1;" parent="1" source="To99Qyr-eG0sXd5TeUce-45" target="To99Qyr-eG0sXd5TeUce-56" edge="1">
          <mxGeometry relative="1" as="geometry" />
        </mxCell>
        <mxCell id="To99Qyr-eG0sXd5TeUce-45" value="Enter untuk&amp;nbsp;&lt;div&gt;kembali kemenu&lt;/div&gt;" style="shape=parallelogram;perimeter=parallelogramPerimeter;whiteSpace=wrap;html=1;fixedSize=1;" parent="1" vertex="1">
          <mxGeometry x="860" y="-120" width="120" height="60" as="geometry" />
        </mxCell>
        <mxCell id="To99Qyr-eG0sXd5TeUce-50" value="" style="edgeStyle=orthogonalEdgeStyle;rounded=0;orthogonalLoop=1;jettySize=auto;html=1;" parent="1" source="To99Qyr-eG0sXd5TeUce-47" target="To99Qyr-eG0sXd5TeUce-49" edge="1">
          <mxGeometry relative="1" as="geometry">
            <Array as="points">
              <mxPoint x="350" />
              <mxPoint x="350" />
            </Array>
          </mxGeometry>
        </mxCell>
        <mxCell id="To99Qyr-eG0sXd5TeUce-47" value="Print selamat&amp;nbsp;&lt;div&gt;datang&amp;nbsp;&lt;/div&gt;&lt;div&gt;pengunjung&lt;/div&gt;" style="shape=parallelogram;perimeter=parallelogramPerimeter;whiteSpace=wrap;html=1;fixedSize=1;" parent="1" vertex="1">
          <mxGeometry x="290" y="-120" width="120" height="60" as="geometry" />
        </mxCell>
        <mxCell id="To99Qyr-eG0sXd5TeUce-77" value="" style="edgeStyle=orthogonalEdgeStyle;rounded=0;orthogonalLoop=1;jettySize=auto;html=1;" parent="1" source="To99Qyr-eG0sXd5TeUce-49" target="To99Qyr-eG0sXd5TeUce-76" edge="1">
          <mxGeometry relative="1" as="geometry" />
        </mxCell>
        <mxCell id="MfKaXdtlaW-QQtU6wJ1J-5" style="edgeStyle=orthogonalEdgeStyle;rounded=0;orthogonalLoop=1;jettySize=auto;html=1;exitX=0;exitY=0.5;exitDx=0;exitDy=0;entryX=0;entryY=0.5;entryDx=0;entryDy=0;" edge="1" parent="1" source="To99Qyr-eG0sXd5TeUce-49" target="To99Qyr-eG0sXd5TeUce-6">
          <mxGeometry relative="1" as="geometry">
            <Array as="points">
              <mxPoint x="-290" y="65" />
              <mxPoint x="-290" y="-800" />
            </Array>
          </mxGeometry>
        </mxCell>
        <mxCell id="To99Qyr-eG0sXd5TeUce-49" value="&amp;nbsp;Enter untuk&lt;div&gt;kembali ke&lt;/div&gt;&lt;div&gt;menu pengunjung&lt;/div&gt;" style="shape=parallelogram;perimeter=parallelogramPerimeter;whiteSpace=wrap;html=1;fixedSize=1;" parent="1" vertex="1">
          <mxGeometry x="284" y="30" width="130" height="70" as="geometry" />
        </mxCell>
        <mxCell id="5CZIcYwYazEij0t36Gs7-92" style="edgeStyle=orthogonalEdgeStyle;rounded=0;orthogonalLoop=1;jettySize=auto;html=1;exitX=0.5;exitY=1;exitDx=0;exitDy=0;" parent="1" source="To99Qyr-eG0sXd5TeUce-51" target="5CZIcYwYazEij0t36Gs7-77" edge="1">
          <mxGeometry relative="1" as="geometry">
            <mxPoint x="140" y="1971.3330078125" as="targetPoint" />
            <Array as="points">
              <mxPoint x="-90" y="1975" />
            </Array>
          </mxGeometry>
        </mxCell>
        <mxCell id="To99Qyr-eG0sXd5TeUce-51" value="Username atau&amp;nbsp;&lt;div&gt;password salah&lt;/div&gt;" style="shape=parallelogram;perimeter=parallelogramPerimeter;whiteSpace=wrap;html=1;fixedSize=1;" parent="1" vertex="1">
          <mxGeometry x="-150" y="-130" width="120" height="60" as="geometry" />
        </mxCell>
        <mxCell id="To99Qyr-eG0sXd5TeUce-59" value="" style="edgeStyle=orthogonalEdgeStyle;rounded=0;orthogonalLoop=1;jettySize=auto;html=1;" parent="1" source="To99Qyr-eG0sXd5TeUce-56" target="To99Qyr-eG0sXd5TeUce-58" edge="1">
          <mxGeometry relative="1" as="geometry" />
        </mxCell>
        <mxCell id="To99Qyr-eG0sXd5TeUce-56" value="Menu Film" style="whiteSpace=wrap;html=1;" parent="1" vertex="1">
          <mxGeometry x="860" y="40" width="120" height="60" as="geometry" />
        </mxCell>
        <mxCell id="To99Qyr-eG0sXd5TeUce-61" value="" style="edgeStyle=orthogonalEdgeStyle;rounded=0;orthogonalLoop=1;jettySize=auto;html=1;" parent="1" source="To99Qyr-eG0sXd5TeUce-58" target="To99Qyr-eG0sXd5TeUce-60" edge="1">
          <mxGeometry relative="1" as="geometry" />
        </mxCell>
        <mxCell id="To99Qyr-eG0sXd5TeUce-58" value="Input" style="shape=parallelogram;perimeter=parallelogramPerimeter;whiteSpace=wrap;html=1;fixedSize=1;" parent="1" vertex="1">
          <mxGeometry x="860" y="180" width="120" height="60" as="geometry" />
        </mxCell>
        <mxCell id="To99Qyr-eG0sXd5TeUce-63" value="" style="edgeStyle=orthogonalEdgeStyle;rounded=0;orthogonalLoop=1;jettySize=auto;html=1;" parent="1" source="To99Qyr-eG0sXd5TeUce-60" target="To99Qyr-eG0sXd5TeUce-62" edge="1">
          <mxGeometry relative="1" as="geometry" />
        </mxCell>
        <mxCell id="To99Qyr-eG0sXd5TeUce-66" value="" style="edgeStyle=orthogonalEdgeStyle;rounded=0;orthogonalLoop=1;jettySize=auto;html=1;" parent="1" source="To99Qyr-eG0sXd5TeUce-60" target="To99Qyr-eG0sXd5TeUce-65" edge="1">
          <mxGeometry relative="1" as="geometry" />
        </mxCell>
        <mxCell id="To99Qyr-eG0sXd5TeUce-88" value="" style="edgeStyle=orthogonalEdgeStyle;rounded=0;orthogonalLoop=1;jettySize=auto;html=1;" parent="1" source="To99Qyr-eG0sXd5TeUce-60" target="To99Qyr-eG0sXd5TeUce-87" edge="1">
          <mxGeometry relative="1" as="geometry" />
        </mxCell>
        <mxCell id="To99Qyr-eG0sXd5TeUce-60" value="Tambahkan&lt;div&gt;Daftar&lt;/div&gt;&lt;div&gt;Film&lt;/div&gt;" style="rhombus;whiteSpace=wrap;html=1;" parent="1" vertex="1">
          <mxGeometry x="862.5" y="305" width="115" height="110" as="geometry" />
        </mxCell>
        <mxCell id="To99Qyr-eG0sXd5TeUce-62" value="Keluar" style="shape=parallelogram;perimeter=parallelogramPerimeter;whiteSpace=wrap;html=1;fixedSize=1;" parent="1" vertex="1">
          <mxGeometry x="670" y="330" width="120" height="60" as="geometry" />
        </mxCell>
        <mxCell id="To99Qyr-eG0sXd5TeUce-64" value="yes" style="text;html=1;align=center;verticalAlign=middle;resizable=0;points=[];autosize=1;strokeColor=none;fillColor=none;" parent="1" vertex="1">
          <mxGeometry x="950" y="318" width="40" height="30" as="geometry" />
        </mxCell>
        <mxCell id="To99Qyr-eG0sXd5TeUce-68" value="" style="edgeStyle=orthogonalEdgeStyle;rounded=0;orthogonalLoop=1;jettySize=auto;html=1;" parent="1" source="To99Qyr-eG0sXd5TeUce-65" target="To99Qyr-eG0sXd5TeUce-67" edge="1">
          <mxGeometry relative="1" as="geometry" />
        </mxCell>
        <mxCell id="5CZIcYwYazEij0t36Gs7-2" value="" style="edgeStyle=orthogonalEdgeStyle;rounded=0;orthogonalLoop=1;jettySize=auto;html=1;" parent="1" source="To99Qyr-eG0sXd5TeUce-65" target="5CZIcYwYazEij0t36Gs7-1" edge="1">
          <mxGeometry relative="1" as="geometry" />
        </mxCell>
        <mxCell id="To99Qyr-eG0sXd5TeUce-65" value="Tampilkan Daftar&lt;div&gt;Film&lt;/div&gt;" style="rhombus;whiteSpace=wrap;html=1;" parent="1" vertex="1">
          <mxGeometry x="1060" y="300" width="125" height="120" as="geometry" />
        </mxCell>
        <mxCell id="To99Qyr-eG0sXd5TeUce-70" value="" style="edgeStyle=orthogonalEdgeStyle;rounded=0;orthogonalLoop=1;jettySize=auto;html=1;" parent="1" source="To99Qyr-eG0sXd5TeUce-67" target="To99Qyr-eG0sXd5TeUce-69" edge="1">
          <mxGeometry relative="1" as="geometry" />
        </mxCell>
        <mxCell id="5CZIcYwYazEij0t36Gs7-9" value="" style="edgeStyle=orthogonalEdgeStyle;rounded=0;orthogonalLoop=1;jettySize=auto;html=1;" parent="1" source="To99Qyr-eG0sXd5TeUce-67" target="5CZIcYwYazEij0t36Gs7-8" edge="1">
          <mxGeometry relative="1" as="geometry" />
        </mxCell>
        <mxCell id="To99Qyr-eG0sXd5TeUce-67" value="Ubah Daftar Film" style="rhombus;whiteSpace=wrap;html=1;" parent="1" vertex="1">
          <mxGeometry x="1265" y="300" width="125" height="120" as="geometry" />
        </mxCell>
        <mxCell id="5CZIcYwYazEij0t36Gs7-19" value="" style="edgeStyle=orthogonalEdgeStyle;rounded=0;orthogonalLoop=1;jettySize=auto;html=1;" parent="1" source="To99Qyr-eG0sXd5TeUce-69" target="5CZIcYwYazEij0t36Gs7-18" edge="1">
          <mxGeometry relative="1" as="geometry" />
        </mxCell>
        <mxCell id="To99Qyr-eG0sXd5TeUce-69" value="Hapus Daftar Film" style="rhombus;whiteSpace=wrap;html=1;" parent="1" vertex="1">
          <mxGeometry x="1470" y="300" width="125" height="120" as="geometry" />
        </mxCell>
        <mxCell id="To99Qyr-eG0sXd5TeUce-79" value="" style="edgeStyle=orthogonalEdgeStyle;rounded=0;orthogonalLoop=1;jettySize=auto;html=1;" parent="1" source="To99Qyr-eG0sXd5TeUce-76" target="To99Qyr-eG0sXd5TeUce-78" edge="1">
          <mxGeometry relative="1" as="geometry" />
        </mxCell>
        <mxCell id="To99Qyr-eG0sXd5TeUce-76" value="Menu Film" style="whiteSpace=wrap;html=1;" parent="1" vertex="1">
          <mxGeometry x="289" y="185" width="120" height="60" as="geometry" />
        </mxCell>
        <mxCell id="To99Qyr-eG0sXd5TeUce-81" value="" style="edgeStyle=orthogonalEdgeStyle;rounded=0;orthogonalLoop=1;jettySize=auto;html=1;" parent="1" source="To99Qyr-eG0sXd5TeUce-78" target="To99Qyr-eG0sXd5TeUce-80" edge="1">
          <mxGeometry relative="1" as="geometry" />
        </mxCell>
        <mxCell id="To99Qyr-eG0sXd5TeUce-78" value="Input" style="shape=parallelogram;perimeter=parallelogramPerimeter;whiteSpace=wrap;html=1;fixedSize=1;" parent="1" vertex="1">
          <mxGeometry x="289" y="325" width="120" height="60" as="geometry" />
        </mxCell>
        <mxCell id="To99Qyr-eG0sXd5TeUce-83" value="" style="edgeStyle=orthogonalEdgeStyle;rounded=0;orthogonalLoop=1;jettySize=auto;html=1;" parent="1" source="To99Qyr-eG0sXd5TeUce-80" target="To99Qyr-eG0sXd5TeUce-82" edge="1">
          <mxGeometry relative="1" as="geometry" />
        </mxCell>
        <mxCell id="To99Qyr-eG0sXd5TeUce-86" value="" style="edgeStyle=orthogonalEdgeStyle;rounded=0;orthogonalLoop=1;jettySize=auto;html=1;" parent="1" source="To99Qyr-eG0sXd5TeUce-80" target="To99Qyr-eG0sXd5TeUce-85" edge="1">
          <mxGeometry relative="1" as="geometry" />
        </mxCell>
        <mxCell id="5CZIcYwYazEij0t36Gs7-56" value="" style="edgeStyle=orthogonalEdgeStyle;rounded=0;orthogonalLoop=1;jettySize=auto;html=1;" parent="1" source="To99Qyr-eG0sXd5TeUce-80" target="5CZIcYwYazEij0t36Gs7-55" edge="1">
          <mxGeometry relative="1" as="geometry" />
        </mxCell>
        <mxCell id="To99Qyr-eG0sXd5TeUce-80" value="Tampilkan&amp;nbsp;&lt;div&gt;daftar&lt;/div&gt;&lt;div&gt;&amp;nbsp;film&lt;/div&gt;" style="rhombus;whiteSpace=wrap;html=1;" parent="1" vertex="1">
          <mxGeometry x="293.5" y="460" width="111" height="95" as="geometry" />
        </mxCell>
        <mxCell id="To99Qyr-eG0sXd5TeUce-82" value="Keluar" style="shape=parallelogram;perimeter=parallelogramPerimeter;whiteSpace=wrap;html=1;fixedSize=1;" parent="1" vertex="1">
          <mxGeometry x="480" y="477.5" width="120" height="60" as="geometry" />
        </mxCell>
        <mxCell id="To99Qyr-eG0sXd5TeUce-84" value="yes" style="text;html=1;align=center;verticalAlign=middle;resizable=0;points=[];autosize=1;strokeColor=none;fillColor=none;" parent="1" vertex="1">
          <mxGeometry x="280" y="468" width="40" height="30" as="geometry" />
        </mxCell>
        <mxCell id="5CZIcYwYazEij0t36Gs7-62" value="" style="edgeStyle=orthogonalEdgeStyle;rounded=0;orthogonalLoop=1;jettySize=auto;html=1;" parent="1" source="To99Qyr-eG0sXd5TeUce-85" target="5CZIcYwYazEij0t36Gs7-61" edge="1">
          <mxGeometry relative="1" as="geometry" />
        </mxCell>
        <mxCell id="To99Qyr-eG0sXd5TeUce-85" value="Penyewaan" style="rhombus;whiteSpace=wrap;html=1;" parent="1" vertex="1">
          <mxGeometry x="100" y="460" width="111" height="95" as="geometry" />
        </mxCell>
        <mxCell id="To99Qyr-eG0sXd5TeUce-90" value="" style="edgeStyle=orthogonalEdgeStyle;rounded=0;orthogonalLoop=1;jettySize=auto;html=1;" parent="1" source="To99Qyr-eG0sXd5TeUce-87" target="To99Qyr-eG0sXd5TeUce-89" edge="1">
          <mxGeometry relative="1" as="geometry" />
        </mxCell>
        <mxCell id="To99Qyr-eG0sXd5TeUce-87" value="Input" style="shape=parallelogram;perimeter=parallelogramPerimeter;whiteSpace=wrap;html=1;fixedSize=1;" parent="1" vertex="1">
          <mxGeometry x="860" y="520" width="120" height="60" as="geometry" />
        </mxCell>
        <mxCell id="To99Qyr-eG0sXd5TeUce-92" value="" style="edgeStyle=orthogonalEdgeStyle;rounded=0;orthogonalLoop=1;jettySize=auto;html=1;" parent="1" source="To99Qyr-eG0sXd5TeUce-89" target="To99Qyr-eG0sXd5TeUce-91" edge="1">
          <mxGeometry relative="1" as="geometry" />
        </mxCell>
        <mxCell id="To99Qyr-eG0sXd5TeUce-89" value="Masukkan Nama&amp;nbsp;&lt;div&gt;Film&lt;/div&gt;" style="shape=parallelogram;perimeter=parallelogramPerimeter;whiteSpace=wrap;html=1;fixedSize=1;" parent="1" vertex="1">
          <mxGeometry x="860" y="660" width="120" height="60" as="geometry" />
        </mxCell>
        <mxCell id="To99Qyr-eG0sXd5TeUce-94" value="" style="edgeStyle=orthogonalEdgeStyle;rounded=0;orthogonalLoop=1;jettySize=auto;html=1;" parent="1" source="To99Qyr-eG0sXd5TeUce-91" target="To99Qyr-eG0sXd5TeUce-93" edge="1">
          <mxGeometry relative="1" as="geometry" />
        </mxCell>
        <mxCell id="To99Qyr-eG0sXd5TeUce-91" value="Masukkan Harga&lt;div&gt;tiket&lt;/div&gt;" style="shape=parallelogram;perimeter=parallelogramPerimeter;whiteSpace=wrap;html=1;fixedSize=1;" parent="1" vertex="1">
          <mxGeometry x="860" y="800" width="120" height="60" as="geometry" />
        </mxCell>
        <mxCell id="5CZIcYwYazEij0t36Gs7-93" style="edgeStyle=orthogonalEdgeStyle;rounded=0;orthogonalLoop=1;jettySize=auto;html=1;exitX=0.5;exitY=1;exitDx=0;exitDy=0;" parent="1" source="To99Qyr-eG0sXd5TeUce-93" edge="1">
          <mxGeometry relative="1" as="geometry">
            <mxPoint x="750" y="1980" as="targetPoint" />
            <Array as="points">
              <mxPoint x="920" y="1980" />
            </Array>
          </mxGeometry>
        </mxCell>
        <mxCell id="To99Qyr-eG0sXd5TeUce-93" value="Berhasil ditambahkan" style="whiteSpace=wrap;html=1;" parent="1" vertex="1">
          <mxGeometry x="860" y="940" width="120" height="60" as="geometry" />
        </mxCell>
        <mxCell id="5CZIcYwYazEij0t36Gs7-5" value="" style="edgeStyle=orthogonalEdgeStyle;rounded=0;orthogonalLoop=1;jettySize=auto;html=1;" parent="1" source="5CZIcYwYazEij0t36Gs7-1" target="5CZIcYwYazEij0t36Gs7-4" edge="1">
          <mxGeometry relative="1" as="geometry" />
        </mxCell>
        <mxCell id="5CZIcYwYazEij0t36Gs7-1" value="Daftar Film" style="whiteSpace=wrap;html=1;" parent="1" vertex="1">
          <mxGeometry x="1062.5" y="530" width="120" height="60" as="geometry" />
        </mxCell>
        <mxCell id="5CZIcYwYazEij0t36Gs7-7" value="" style="edgeStyle=orthogonalEdgeStyle;rounded=0;orthogonalLoop=1;jettySize=auto;html=1;" parent="1" source="5CZIcYwYazEij0t36Gs7-4" target="5CZIcYwYazEij0t36Gs7-6" edge="1">
          <mxGeometry relative="1" as="geometry" />
        </mxCell>
        <mxCell id="5CZIcYwYazEij0t36Gs7-4" value="input" style="shape=parallelogram;perimeter=parallelogramPerimeter;whiteSpace=wrap;html=1;fixedSize=1;" parent="1" vertex="1">
          <mxGeometry x="1062.5" y="670" width="120" height="60" as="geometry" />
        </mxCell>
        <mxCell id="5CZIcYwYazEij0t36Gs7-87" style="edgeStyle=orthogonalEdgeStyle;rounded=0;orthogonalLoop=1;jettySize=auto;html=1;entryX=1;entryY=0.5;entryDx=0;entryDy=0;" parent="1" edge="1">
          <mxGeometry relative="1" as="geometry">
            <mxPoint x="1092" y="850" as="sourcePoint" />
            <mxPoint x="710.0024999999999" y="1985" as="targetPoint" />
            <Array as="points">
              <mxPoint x="1092" y="850" />
              <mxPoint x="1120" y="850" />
              <mxPoint x="1120" y="1985" />
            </Array>
          </mxGeometry>
        </mxCell>
        <mxCell id="5CZIcYwYazEij0t36Gs7-6" value="Daftar film tidak tersedia" style="shape=parallelogram;perimeter=parallelogramPerimeter;whiteSpace=wrap;html=1;fixedSize=1;" parent="1" vertex="1">
          <mxGeometry x="1062.5" y="810" width="120" height="60" as="geometry" />
        </mxCell>
        <mxCell id="5CZIcYwYazEij0t36Gs7-11" value="" style="edgeStyle=orthogonalEdgeStyle;rounded=0;orthogonalLoop=1;jettySize=auto;html=1;" parent="1" source="5CZIcYwYazEij0t36Gs7-8" target="5CZIcYwYazEij0t36Gs7-10" edge="1">
          <mxGeometry relative="1" as="geometry" />
        </mxCell>
        <mxCell id="5CZIcYwYazEij0t36Gs7-8" value="Input" style="shape=parallelogram;perimeter=parallelogramPerimeter;whiteSpace=wrap;html=1;fixedSize=1;" parent="1" vertex="1">
          <mxGeometry x="1267.5" y="530" width="120" height="60" as="geometry" />
        </mxCell>
        <mxCell id="5CZIcYwYazEij0t36Gs7-13" value="" style="edgeStyle=orthogonalEdgeStyle;rounded=0;orthogonalLoop=1;jettySize=auto;html=1;" parent="1" source="5CZIcYwYazEij0t36Gs7-10" target="5CZIcYwYazEij0t36Gs7-12" edge="1">
          <mxGeometry relative="1" as="geometry" />
        </mxCell>
        <mxCell id="5CZIcYwYazEij0t36Gs7-10" value="Masukkan Nama&amp;nbsp;&lt;div&gt;FIlm baru&lt;/div&gt;" style="shape=parallelogram;perimeter=parallelogramPerimeter;whiteSpace=wrap;html=1;fixedSize=1;" parent="1" vertex="1">
          <mxGeometry x="1261.25" y="665" width="132.5" height="70" as="geometry" />
        </mxCell>
        <mxCell id="5CZIcYwYazEij0t36Gs7-15" value="" style="edgeStyle=orthogonalEdgeStyle;rounded=0;orthogonalLoop=1;jettySize=auto;html=1;" parent="1" source="5CZIcYwYazEij0t36Gs7-12" target="5CZIcYwYazEij0t36Gs7-14" edge="1">
          <mxGeometry relative="1" as="geometry" />
        </mxCell>
        <mxCell id="5CZIcYwYazEij0t36Gs7-12" value="Masukkan Harga&amp;nbsp;&lt;div&gt;Film Baru&lt;/div&gt;" style="shape=parallelogram;perimeter=parallelogramPerimeter;whiteSpace=wrap;html=1;fixedSize=1;" parent="1" vertex="1">
          <mxGeometry x="1261.25" y="815" width="132.5" height="70" as="geometry" />
        </mxCell>
        <mxCell id="5CZIcYwYazEij0t36Gs7-88" style="edgeStyle=orthogonalEdgeStyle;rounded=0;orthogonalLoop=1;jettySize=auto;html=1;entryX=1;entryY=0.75;entryDx=0;entryDy=0;" parent="1" source="5CZIcYwYazEij0t36Gs7-14" target="5CZIcYwYazEij0t36Gs7-77" edge="1">
          <mxGeometry relative="1" as="geometry">
            <mxPoint x="750" y="1984" as="targetPoint" />
            <Array as="points">
              <mxPoint x="1328" y="1984" />
              <mxPoint x="733" y="1984" />
            </Array>
          </mxGeometry>
        </mxCell>
        <mxCell id="5CZIcYwYazEij0t36Gs7-14" value="Berhasil diperbaharui" style="whiteSpace=wrap;html=1;" parent="1" vertex="1">
          <mxGeometry x="1267.5" y="970" width="120" height="60" as="geometry" />
        </mxCell>
        <mxCell id="5CZIcYwYazEij0t36Gs7-25" value="" style="edgeStyle=orthogonalEdgeStyle;rounded=0;orthogonalLoop=1;jettySize=auto;html=1;" parent="1" source="5CZIcYwYazEij0t36Gs7-18" target="5CZIcYwYazEij0t36Gs7-24" edge="1">
          <mxGeometry relative="1" as="geometry" />
        </mxCell>
        <mxCell id="5CZIcYwYazEij0t36Gs7-18" value="Daftar FIlm&amp;nbsp;" style="whiteSpace=wrap;html=1;" parent="1" vertex="1">
          <mxGeometry x="1472.5" y="530" width="120" height="60" as="geometry" />
        </mxCell>
        <mxCell id="5CZIcYwYazEij0t36Gs7-27" value="" style="edgeStyle=orthogonalEdgeStyle;rounded=0;orthogonalLoop=1;jettySize=auto;html=1;" parent="1" source="5CZIcYwYazEij0t36Gs7-24" target="5CZIcYwYazEij0t36Gs7-26" edge="1">
          <mxGeometry relative="1" as="geometry" />
        </mxCell>
        <mxCell id="5CZIcYwYazEij0t36Gs7-24" value="Input" style="shape=parallelogram;perimeter=parallelogramPerimeter;whiteSpace=wrap;html=1;fixedSize=1;" parent="1" vertex="1">
          <mxGeometry x="1472.5" y="670" width="120" height="60" as="geometry" />
        </mxCell>
        <mxCell id="5CZIcYwYazEij0t36Gs7-29" value="" style="edgeStyle=orthogonalEdgeStyle;rounded=0;orthogonalLoop=1;jettySize=auto;html=1;" parent="1" source="5CZIcYwYazEij0t36Gs7-26" target="5CZIcYwYazEij0t36Gs7-28" edge="1">
          <mxGeometry relative="1" as="geometry" />
        </mxCell>
        <mxCell id="5CZIcYwYazEij0t36Gs7-26" value="Masukkan Nomor&lt;div&gt;Film yang&amp;nbsp;&lt;/div&gt;&lt;div&gt;Ingin dihapus&lt;/div&gt;" style="shape=parallelogram;perimeter=parallelogramPerimeter;whiteSpace=wrap;html=1;fixedSize=1;" parent="1" vertex="1">
          <mxGeometry x="1472.5" y="810" width="120" height="60" as="geometry" />
        </mxCell>
        <mxCell id="5CZIcYwYazEij0t36Gs7-89" style="edgeStyle=orthogonalEdgeStyle;rounded=0;orthogonalLoop=1;jettySize=auto;html=1;" parent="1" edge="1">
          <mxGeometry relative="1" as="geometry">
            <mxPoint x="740" y="1975" as="targetPoint" />
            <mxPoint x="1552.6000000000004" y="1020" as="sourcePoint" />
            <Array as="points">
              <mxPoint x="1540" y="1020" />
              <mxPoint x="1540" y="1983" />
              <mxPoint x="720" y="1983" />
              <mxPoint x="720" y="1975" />
            </Array>
          </mxGeometry>
        </mxCell>
        <mxCell id="5CZIcYwYazEij0t36Gs7-28" value="Berhasil DIhapus" style="whiteSpace=wrap;html=1;" parent="1" vertex="1">
          <mxGeometry x="1472.5" y="950" width="120" height="60" as="geometry" />
        </mxCell>
        <mxCell id="5CZIcYwYazEij0t36Gs7-58" value="" style="edgeStyle=orthogonalEdgeStyle;rounded=0;orthogonalLoop=1;jettySize=auto;html=1;" parent="1" source="5CZIcYwYazEij0t36Gs7-55" target="5CZIcYwYazEij0t36Gs7-57" edge="1">
          <mxGeometry relative="1" as="geometry" />
        </mxCell>
        <mxCell id="5CZIcYwYazEij0t36Gs7-55" value="Input" style="shape=parallelogram;perimeter=parallelogramPerimeter;whiteSpace=wrap;html=1;fixedSize=1;" parent="1" vertex="1">
          <mxGeometry x="289" y="652.5" width="120" height="60" as="geometry" />
        </mxCell>
        <mxCell id="5CZIcYwYazEij0t36Gs7-95" style="edgeStyle=orthogonalEdgeStyle;rounded=0;orthogonalLoop=1;jettySize=auto;html=1;entryX=0;entryY=0.5;entryDx=0;entryDy=0;" parent="1" source="5CZIcYwYazEij0t36Gs7-57" target="5CZIcYwYazEij0t36Gs7-77" edge="1">
          <mxGeometry relative="1" as="geometry">
            <Array as="points">
              <mxPoint x="350" y="1975" />
            </Array>
          </mxGeometry>
        </mxCell>
        <mxCell id="5CZIcYwYazEij0t36Gs7-57" value="Daftar Film" style="whiteSpace=wrap;html=1;" parent="1" vertex="1">
          <mxGeometry x="289" y="792.5" width="120" height="60" as="geometry" />
        </mxCell>
        <mxCell id="5CZIcYwYazEij0t36Gs7-64" value="" style="edgeStyle=orthogonalEdgeStyle;rounded=0;orthogonalLoop=1;jettySize=auto;html=1;" parent="1" source="5CZIcYwYazEij0t36Gs7-61" target="5CZIcYwYazEij0t36Gs7-63" edge="1">
          <mxGeometry relative="1" as="geometry" />
        </mxCell>
        <mxCell id="5CZIcYwYazEij0t36Gs7-61" value="Input" style="shape=parallelogram;perimeter=parallelogramPerimeter;whiteSpace=wrap;html=1;fixedSize=1;" parent="1" vertex="1">
          <mxGeometry x="95.5" y="652.5" width="120" height="60" as="geometry" />
        </mxCell>
        <mxCell id="5CZIcYwYazEij0t36Gs7-66" value="" style="edgeStyle=orthogonalEdgeStyle;rounded=0;orthogonalLoop=1;jettySize=auto;html=1;" parent="1" source="5CZIcYwYazEij0t36Gs7-63" target="5CZIcYwYazEij0t36Gs7-65" edge="1">
          <mxGeometry relative="1" as="geometry" />
        </mxCell>
        <mxCell id="5CZIcYwYazEij0t36Gs7-63" value="Daftar Film" style="whiteSpace=wrap;html=1;" parent="1" vertex="1">
          <mxGeometry x="95.5" y="792.5" width="120" height="60" as="geometry" />
        </mxCell>
        <mxCell id="5CZIcYwYazEij0t36Gs7-65" value="masukkan Nomor&lt;div&gt;film yang&amp;nbsp;&lt;br&gt;ingin&amp;nbsp;&lt;br&gt;disewa&lt;/div&gt;" style="shape=parallelogram;perimeter=parallelogramPerimeter;whiteSpace=wrap;html=1;fixedSize=1;" parent="1" vertex="1">
          <mxGeometry x="78.25" y="917.5" width="154.5" height="92.5" as="geometry" />
        </mxCell>
        <mxCell id="5CZIcYwYazEij0t36Gs7-72" value="" style="edgeStyle=orthogonalEdgeStyle;rounded=0;orthogonalLoop=1;jettySize=auto;html=1;exitX=0.5;exitY=1;exitDx=0;exitDy=0;" parent="1" source="5CZIcYwYazEij0t36Gs7-65" target="5CZIcYwYazEij0t36Gs7-71" edge="1">
          <mxGeometry relative="1" as="geometry">
            <mxPoint x="155.5" y="1326.255" as="sourcePoint" />
          </mxGeometry>
        </mxCell>
        <mxCell id="5CZIcYwYazEij0t36Gs7-74" value="" style="edgeStyle=orthogonalEdgeStyle;rounded=0;orthogonalLoop=1;jettySize=auto;html=1;" parent="1" source="5CZIcYwYazEij0t36Gs7-71" target="5CZIcYwYazEij0t36Gs7-73" edge="1">
          <mxGeometry relative="1" as="geometry" />
        </mxCell>
        <mxCell id="5CZIcYwYazEij0t36Gs7-71" value="Input" style="shape=parallelogram;perimeter=parallelogramPerimeter;whiteSpace=wrap;html=1;fixedSize=1;" parent="1" vertex="1">
          <mxGeometry x="95.5" y="1406.255" width="120" height="60" as="geometry" />
        </mxCell>
        <mxCell id="5CZIcYwYazEij0t36Gs7-76" value="" style="edgeStyle=orthogonalEdgeStyle;rounded=0;orthogonalLoop=1;jettySize=auto;html=1;" parent="1" source="5CZIcYwYazEij0t36Gs7-73" target="5CZIcYwYazEij0t36Gs7-75" edge="1">
          <mxGeometry relative="1" as="geometry" />
        </mxCell>
        <mxCell id="5CZIcYwYazEij0t36Gs7-73" value="Enter untuk menambahkan&lt;div&gt;penyewaan atau&amp;nbsp;&lt;/div&gt;&lt;div&gt;menyelesaikan&amp;nbsp;&lt;/div&gt;&lt;div&gt;penyewaan&lt;/div&gt;" style="shape=parallelogram;perimeter=parallelogramPerimeter;whiteSpace=wrap;html=1;fixedSize=1;" parent="1" vertex="1">
          <mxGeometry x="64.62" y="1530" width="181.75" height="106.26" as="geometry" />
        </mxCell>
        <mxCell id="5CZIcYwYazEij0t36Gs7-85" style="edgeStyle=orthogonalEdgeStyle;rounded=0;orthogonalLoop=1;jettySize=auto;html=1;exitX=0.5;exitY=1;exitDx=0;exitDy=0;" parent="1" source="5CZIcYwYazEij0t36Gs7-75" target="5CZIcYwYazEij0t36Gs7-77" edge="1">
          <mxGeometry relative="1" as="geometry">
            <Array as="points">
              <mxPoint x="156" y="1975" />
            </Array>
          </mxGeometry>
        </mxCell>
        <mxCell id="5CZIcYwYazEij0t36Gs7-75" value="Total Penyewaan" style="whiteSpace=wrap;html=1;" parent="1" vertex="1">
          <mxGeometry x="95.495" y="1739.39" width="120" height="60" as="geometry" />
        </mxCell>
        <mxCell id="5CZIcYwYazEij0t36Gs7-79" value="" style="edgeStyle=orthogonalEdgeStyle;rounded=0;orthogonalLoop=1;jettySize=auto;html=1;" parent="1" source="5CZIcYwYazEij0t36Gs7-77" target="5CZIcYwYazEij0t36Gs7-78" edge="1">
          <mxGeometry relative="1" as="geometry" />
        </mxCell>
        <mxCell id="5CZIcYwYazEij0t36Gs7-98" value="" style="edgeStyle=orthogonalEdgeStyle;rounded=0;orthogonalLoop=1;jettySize=auto;html=1;" parent="1" source="5CZIcYwYazEij0t36Gs7-77" target="5CZIcYwYazEij0t36Gs7-78" edge="1">
          <mxGeometry relative="1" as="geometry" />
        </mxCell>
        <mxCell id="5CZIcYwYazEij0t36Gs7-77" value="Enter untuk&amp;nbsp;&lt;div&gt;kembali kemenu&lt;/div&gt;" style="shape=parallelogram;html=1;strokeWidth=2;perimeter=parallelogramPerimeter;whiteSpace=wrap;rounded=1;arcSize=12;size=0.23;" parent="1" vertex="1">
          <mxGeometry x="587.51" y="1920" width="172.5" height="110" as="geometry" />
        </mxCell>
        <mxCell id="5CZIcYwYazEij0t36Gs7-83" value="" style="edgeStyle=orthogonalEdgeStyle;rounded=0;orthogonalLoop=1;jettySize=auto;html=1;" parent="1" source="5CZIcYwYazEij0t36Gs7-78" edge="1">
          <mxGeometry relative="1" as="geometry">
            <mxPoint x="673.7550000000001" y="2302.5" as="targetPoint" />
          </mxGeometry>
        </mxCell>
        <mxCell id="5CZIcYwYazEij0t36Gs7-78" value="Keluar dari&amp;nbsp;&lt;div&gt;Perogram&lt;/div&gt;" style="shape=parallelogram;perimeter=parallelogramPerimeter;whiteSpace=wrap;html=1;fixedSize=1;strokeWidth=2;rounded=1;arcSize=12;" parent="1" vertex="1">
          <mxGeometry x="590.63" y="2120" width="166.25" height="95" as="geometry" />
        </mxCell>
        <mxCell id="5CZIcYwYazEij0t36Gs7-84" value="Selesai" style="ellipse;whiteSpace=wrap;html=1;" parent="1" vertex="1">
          <mxGeometry x="594.06" y="2300" width="159.37" height="88" as="geometry" />
        </mxCell>
      </root>
    </mxGraphModel>
  </diagram>
</mxfile>
